<svg xmlns="http://www.w3.org/2000/svg" width="40.348" height="21.42" viewBox="0 0 40.348 21.42">
  <g id="Classroon" transform="translate(-2318.919 1143.605)">
    <g id="Grupo_69" data-name="Grupo 69" transform="translate(2328.284 -1143.605)">
      <path id="Caminho_51" data-name="Caminho 51" d="M2425.156-996.176q-5.054,0-10.107,0c-.8,0-.656.053-.665-.657-.008-.678.03-1.358-.01-2.034a3.83,3.83,0,0,1,.444-1.9,4.685,4.685,0,0,1,1.386-1.654,10.749,10.749,0,0,1,2.24-1.378c.695-.312,1.4-.593,2.112-.872a3.642,3.642,0,0,1,.64-.147q1.248-.242,2.5-.475a2.314,2.314,0,0,1,.41-.032c.689,0,1.381-.048,2.065.01s1.381.214,2.068.339c.429.078.86.158,1.281.272.46.125.911.284,1.363.439a4.792,4.792,0,0,1,.685.278,8.581,8.581,0,0,1,1.795,1.019c.31.274.717.438,1.033.707a4.973,4.973,0,0,1,.754.849,2.814,2.814,0,0,1,.649,1.264,8.777,8.777,0,0,1,.175.912c.024.879.009,1.759.008,2.638,0,.413-.007.424-.432.424q-5.2,0-10.394,0Z" transform="translate(-2414.368 1017.595)" fill="#e5e5e5"/>
      <path id="Caminho_52" data-name="Caminho 52" d="M2489.177-1143.6a4.512,4.512,0,0,1,4.594,4.784,4.717,4.717,0,0,1-4.421,4.305,4.731,4.731,0,0,1-4.767-4.547A4.571,4.571,0,0,1,2489.177-1143.6Z" transform="translate(-2478.365 1143.605)" fill="#e5e5e5"/>
    </g>
    <g id="Grupo_70" data-name="Grupo 70" transform="translate(2341.538 -1141.183)">
      <path id="Caminho_53" data-name="Caminho 53" d="M2572.374-1002.169q-3.911,0-7.822,0c-.621,0-.507.041-.514-.509-.006-.525.023-1.051-.008-1.574a2.958,2.958,0,0,1,.343-1.473,3.629,3.629,0,0,1,1.073-1.28,8.327,8.327,0,0,1,1.733-1.066c.538-.241,1.086-.459,1.634-.675a2.794,2.794,0,0,1,.5-.114q.966-.187,1.934-.368a1.783,1.783,0,0,1,.318-.025c.533,0,1.069-.037,1.6.008s1.069.166,1.6.262c.333.06.666.122.991.211.356.1.705.22,1.055.34a3.7,3.7,0,0,1,.53.215,6.656,6.656,0,0,1,1.389.789c.24.212.555.339.8.547a3.842,3.842,0,0,1,.583.657,2.169,2.169,0,0,1,.5.978,6.712,6.712,0,0,1,.135.706c.019.68.007,1.361.006,2.042,0,.319-.006.328-.334.328h-8.043Z" transform="translate(-2564.025 1018.743)" fill="none" stroke="#e5e5e5" stroke-miterlimit="10" stroke-width="2"/>
      <path id="Caminho_54" data-name="Caminho 54" d="M2621.915-1116.248a3.491,3.491,0,0,1,3.555,3.7,3.65,3.65,0,0,1-3.42,3.332,3.662,3.662,0,0,1-3.689-3.519A3.537,3.537,0,0,1,2621.915-1116.248Z" transform="translate(-2613.549 1116.255)" fill="none" stroke="#e5e5e5" stroke-miterlimit="10" stroke-width="2"/>
    </g>
    <g id="Grupo_71" data-name="Grupo 71" transform="translate(2319.918 -1141.183)">
      <path id="Caminho_55" data-name="Caminho 55" d="M2328.267-1002.169q-3.911,0-7.822,0c-.621,0-.507.041-.514-.509-.006-.525.023-1.051-.008-1.574a2.955,2.955,0,0,1,.343-1.473,3.63,3.63,0,0,1,1.073-1.28,8.319,8.319,0,0,1,1.733-1.066c.538-.241,1.086-.459,1.635-.675a2.774,2.774,0,0,1,.5-.114q.967-.187,1.934-.368a1.786,1.786,0,0,1,.318-.025c.533,0,1.068-.037,1.6.008s1.069.166,1.6.262c.332.06.666.122.991.211.356.1.705.22,1.055.34a3.672,3.672,0,0,1,.53.215,6.64,6.64,0,0,1,1.39.789c.24.212.555.339.8.547a3.822,3.822,0,0,1,.583.657,2.174,2.174,0,0,1,.5.978,6.838,6.838,0,0,1,.135.706c.019.68.007,1.361.006,2.042,0,.319-.006.328-.335.328h-8.042Z" transform="translate(-2319.919 1018.743)" fill="none" stroke="#e5e5e5" stroke-miterlimit="10" stroke-width="2"/>
      <path id="Caminho_56" data-name="Caminho 56" d="M2377.808-1116.248a3.491,3.491,0,0,1,3.555,3.7,3.65,3.65,0,0,1-3.42,3.332,3.662,3.662,0,0,1-3.689-3.519A3.537,3.537,0,0,1,2377.808-1116.248Z" transform="translate(-2369.442 1116.255)" fill="none" stroke="#e5e5e5" stroke-miterlimit="10" stroke-width="2"/>
    </g>
  </g>
</svg>
