<svg xmlns="http://www.w3.org/2000/svg" width="24.002" height="24" viewBox="0 0 24.002 24">
  <g id="ícone_whatsapp" data-name="ícone whatsapp" transform="translate(-1303.643 -1740.52)">
    <path id="Caminho_26" data-name="Caminho 26" d="M1315.123,1740.52h1.453a1.192,1.192,0,0,0,.18.039,11.76,11.76,0,0,1,10.705,9.642c.078.429.123.862.183,1.294v1.454c-.015.067-.031.133-.043.2-.128.729-.194,1.475-.393,2.184a11.8,11.8,0,0,1-16.807,7.244.6.6,0,0,0-.506-.039q-3.007.965-6.02,1.913c-.068.022-.136.039-.232.067.033-.1.051-.163.072-.222q.974-2.882,1.954-5.761a.585.585,0,0,0-.052-.542,11.308,11.308,0,0,1-1.51-4.878,11.012,11.012,0,0,1,.833-5.294,11.6,11.6,0,0,1,8.843-7.114C1314.224,1740.621,1314.676,1740.582,1315.123,1740.52Zm-8.524,21.108c.114-.032.179-.05.245-.071,1.092-.347,2.187-.691,3.276-1.047a.586.586,0,0,1,.542.069,9.931,9.931,0,0,0,12.833-2.124,9.4,9.4,0,0,0,2.122-7.884,9.913,9.913,0,0,0-8.942-8.149,9.929,9.929,0,0,0-9.419,4.93,9.581,9.581,0,0,0-.979,7.372,9.233,9.233,0,0,0,1.438,3.08.368.368,0,0,1,.049.388c-.1.254-.177.516-.265.775C1307.2,1759.838,1306.91,1760.709,1306.6,1761.628Z" transform="translate(0 0)" fill="#e5e5e5"/>
    <path id="Caminho_27" data-name="Caminho 27" d="M1312.345,1747.037c.528-.136.771.174.947.637.238.627.5,1.246.781,1.854a.811.811,0,0,1-.1.9c-.182.243-.381.476-.578.707a.45.45,0,0,0-.054.669,7.794,7.794,0,0,0,3.6,3.2c.678.293.677.3,1.156-.267.221-.263.435-.532.641-.807a.449.449,0,0,1,.6-.171c.814.378,1.626.759,2.429,1.157a.43.43,0,0,1,.189.315,2.149,2.149,0,0,1-.925,2,3.1,3.1,0,0,1-2.711.494,11.849,11.849,0,0,1-3.865-1.734,13.117,13.117,0,0,1-2.729-2.818,8.066,8.066,0,0,1-1.283-2.248,3.293,3.293,0,0,1,.768-3.528A1.183,1.183,0,0,1,1312.345,1747.037Z" transform="translate(-0.128 -0.126)" fill="#e5e5e5"/>
  </g>
</svg>
