<svg xmlns="http://www.w3.org/2000/svg" xmlns:xlink="http://www.w3.org/1999/xlink" width="209.238" height="111.819" viewBox="0 0 209.238 111.819">
  <defs>
    <linearGradient id="linear-gradient" x1="43.163" y1="70.773" x2="-161.349" y2="-266.833" gradientUnits="objectBoundingBox">
      <stop offset="0" stop-color="#8e5bf2"/>
      <stop offset="1" stop-color="#00ede3"/>
    </linearGradient>
    <linearGradient id="linear-gradient-2" x1="67.65" y1="60.585" x2="-236.488" y2="-211.553" xlink:href="#linear-gradient"/>
    <linearGradient id="linear-gradient-3" x1="1.667" y1="1.099" x2="-5.772" y2="-2.6" xlink:href="#linear-gradient"/>
    <linearGradient id="linear-gradient-4" x1="15.82" y1="26.571" x2="-185.618" y2="-315.44" xlink:href="#linear-gradient"/>
    <linearGradient id="linear-gradient-5" x1="0.695" y1="0.847" x2="-2.784" y2="-2.834" xlink:href="#linear-gradient"/>
    <linearGradient id="linear-gradient-6" x1="0.495" y1="0.668" x2="-3.948" y2="-3.016" xlink:href="#linear-gradient"/>
    <linearGradient id="linear-gradient-7" x1="73.671" y1="272.875" x2="-120.067" y2="-448.291" xlink:href="#linear-gradient"/>
    <linearGradient id="linear-gradient-8" x1="89.744" y1="153.588" x2="-148.45" y2="-255.001" xlink:href="#linear-gradient"/>
    <linearGradient id="linear-gradient-9" x1="83.36" y1="145.489" x2="-149.364" y2="-261.939" xlink:href="#linear-gradient"/>
    <linearGradient id="linear-gradient-10" x1="103.986" y1="146.263" x2="-181.372" y2="-255.963" xlink:href="#linear-gradient"/>
    <linearGradient id="linear-gradient-11" x1="64.032" y1="52.56" x2="-305.631" y2="-250.354" xlink:href="#linear-gradient"/>
    <linearGradient id="linear-gradient-12" x1="1.107" y1="0.939" x2="-3.078" y2="-2.76" xlink:href="#linear-gradient"/>
    <linearGradient id="linear-gradient-13" x1="45.422" y1="78.7" x2="-167.539" y2="-291.699" xlink:href="#linear-gradient"/>
    <linearGradient id="linear-gradient-14" x1="54.675" y1="222.767" x2="-113.65" y2="-468.118" xlink:href="#linear-gradient"/>
    <linearGradient id="linear-gradient-15" x1="1.462" y1="1.535" x2="-2.239" y2="-2.164" xlink:href="#linear-gradient"/>
    <linearGradient id="linear-gradient-16" x1="28.271" y1="49.273" x2="-203.737" y2="-358.772" xlink:href="#linear-gradient"/>
    <linearGradient id="linear-gradient-17" x1="1.261" y1="1.228" x2="-2.508" y2="-2.45" xlink:href="#linear-gradient"/>
    <linearGradient id="linear-gradient-18" x1="2.306" y1="1.382" x2="-5.391" y2="-2.318" xlink:href="#linear-gradient"/>
    <linearGradient id="linear-gradient-19" x1="1.875" y1="1.78" x2="0.171" y2="0.195" xlink:href="#linear-gradient"/>
    <linearGradient id="linear-gradient-20" x1="1.03" y1="1.164" x2="-0.19" y2="-0.374" xlink:href="#linear-gradient"/>
    <linearGradient id="linear-gradient-21" x1="1.557" y1="1.645" x2="-0.007" y2="0.046" xlink:href="#linear-gradient"/>
    <linearGradient id="linear-gradient-22" x1="1.502" y1="1.511" x2="-0.437" y2="-0.113" xlink:href="#linear-gradient"/>
    <linearGradient id="linear-gradient-23" x1="2.237" y1="1.339" x2="-1.101" y2="-0.248" xlink:href="#linear-gradient"/>
    <linearGradient id="linear-gradient-24" x1="1.914" y1="2.002" x2="0.316" y2="0.39" xlink:href="#linear-gradient"/>
  </defs>
  <g id="Logo_Bberlim" data-name="Logo Bberlim" transform="translate(-413.702 285.217)">
    <g id="Grupo_1" data-name="Grupo 1" transform="translate(521.591 -212.822)">
      <path id="Caminho_2" data-name="Caminho 2" d="M606.669-186.68c.033.076.078.111.131.106l.078-.008c.028,0,.056-.112.091-.326A.319.319,0,0,0,606.669-186.68Z" transform="translate(-553.793 196.416)" fill="url(#linear-gradient)"/>
      <path id="Caminho_3" data-name="Caminho 3" d="M593.471-181.542l.158-.017.044-.4-.158.017Z" transform="translate(-551.59 195.59)" fill="url(#linear-gradient-2)"/>
      <path id="Caminho_4" data-name="Caminho 4" d="M602.482-191.849l.017-.032-.044-.005a1.182,1.182,0,0,0-.442-.3l.172-.09a.7.7,0,0,0-.476-.383l-.376.237-1.465.157-.087-.108-1.186.56-1.426.152-.532.292-.576,7.077.151.771a1,1,0,0,0-.2.416.306.306,0,0,0,.193-.06l.071-.087.027-.313a.944.944,0,0,0,.089.117c-.008.02-.019.037-.028.057-.06.16-.1.282-.138.39a.167.167,0,0,0-.043.015.181.181,0,0,1-.079.029.288.288,0,0,1-.115.051.463.463,0,0,0,.172.242,2.079,2.079,0,0,0,0,.319c-.018.1-.038.2-.057.3-.006.006-.011.008-.017.015-.059.073-.115.138-.162.2l-.182,1.949a58.893,58.893,0,0,0-.572,6.132l-.162,1.749.117,1.261c0,.147,0,.294,0,.442l-.6,7.334a3.063,3.063,0,0,0,.163-.392.618.618,0,0,1,.051-.1,1.145,1.145,0,0,0,.227.8.792.792,0,0,0-.083.084c-.127-.222-.2-.294-.221-.212a.87.87,0,0,1-.219.654l.932-.232a1.083,1.083,0,0,0,.384.071.966.966,0,0,0,.821-.4.361.361,0,0,0,.422.173.806.806,0,0,1,.522.023l2.92-.785.314-3.9-.186-3.723a.653.653,0,0,0,.2-.436,4.028,4.028,0,0,1,.04-.419l.194-2.443a38.426,38.426,0,0,0,.863-7.415l.816-9.583A.9.9,0,0,0,602.482-191.849Zm-5.782,3.592c0,.252.008.537.012.831a.807.807,0,0,0-.091.107Z" transform="translate(-551.755 197.377)" fill="url(#linear-gradient-3)"/>
      <path id="Caminho_5" data-name="Caminho 5" d="M622.245-171.805l.219-.22-.091-.11-.214.26Z" transform="translate(-556.378 193.951)" fill="url(#linear-gradient-4)"/>
      <path id="Caminho_6" data-name="Caminho 6" d="M636.316-169.1l-1.89-11.7-.029-2.873-1.5-7.446c.226-.129.332-.272.32-.429l-1.091-3.98-.876-.382-2.254.242a.074.074,0,0,1,.074-.087l.038,0,.2-.022a.108.108,0,0,0,.083.031l.035-.042c-.053,0-.074-.012-.065-.052a.055.055,0,0,0-.047-.075,1.22,1.22,0,0,0-.278.01,4.662,4.662,0,0,0-.684.154l-.876.881a4.058,4.058,0,0,1-.227.557,2.818,2.818,0,0,0-.2.474l-1.532,4.538-.061,1.071-.7,3.188-.454.246c.134.037.211.076.228.114a.178.178,0,0,1-.006.139,1.956,1.956,0,0,0-.33.742l-2.073,7.316-.051.716-2.918,8.112-.171,2.424.789-.085.607-.773.826.266,1.855-.2,1.848-.75.073-1.348.856-2.81q.057-.281.095-.483a.547.547,0,0,0-.008-.313.349.349,0,0,1,.226-.143,1.254,1.254,0,0,1,.567.077.4.4,0,0,0,.5-.192l.711.358,2.158.006.156,3.373.282,1.31.508-.132a.926.926,0,0,1-.065.184c-.02.041-.044.089-.067.144l.22.212c.021-.056-.026-.129-.138-.221l.185-.138,1.354.368,2.53-.272a1.252,1.252,0,0,0,.407-.1.98.98,0,0,0,.32-.231c.1-.1.206-.226.325-.369s.276-.319.469-.523l.043-.4Zm-9.742-3.412-.237.024.023-.16.238-.025Zm3.078-5.53-.833.089-.606-.094c-.29.032-.467,0-.528-.1l.178-.215.011-.317,1.4-4.681.6,4.448-.062-.014-.142.213.128.064.088-.166.053.389C629.855-178.419,629.76-178.29,629.652-178.041Z" transform="translate(-555.848 197.921)" fill="url(#linear-gradient-5)"/>
      <path id="Caminho_7" data-name="Caminho 7" d="M655.537-175.141c-.1-.187-.212-.273-.341-.259l-6.762.723-.212-.134.083-1.035a1.046,1.046,0,0,0,.088-.306q.654-5.775.764-11.585a1.079,1.079,0,0,0-.079-.437l.526-5.623c-.059-.047-.053-.066.014-.062s.106-.057.12-.191l.116-1.745.222-.222.091-1.153-.237-.8c-.12.118-.225.142-.311.074l.281-.425-1.544.166a.427.427,0,0,0-.284.167c-.082.1-.15.153-.2.16l-2.484-.09a2.368,2.368,0,0,1-.322.173,1.124,1.124,0,0,1-.332.094l-.427.991-.222,2.309a1.185,1.185,0,0,0-.122.172.274.274,0,0,0-.047.163.348.348,0,0,1,.227.29l-.994,8.579.142,1.522-.647,8.029-.226.576a.131.131,0,0,1,.127.066.176.176,0,0,1,.014.155l-.051,3.751-.382,1.459L642.1-169c-.015.134-.006.2.021.214s.043.043.047.093a.68.68,0,0,1,.028.49c-.05.177.039.357.272.542l2.74-.567a.582.582,0,0,0,.391-.1.562.562,0,0,1,.228-.123l1.6-.012,1.289-.295.173.137a1.847,1.847,0,0,1,.246-.163.821.821,0,0,1,.215-.042.394.394,0,0,1,.285.05.322.322,0,0,0,.243.05l3.874-.413.69-.309.291.127a.441.441,0,0,1,.263-.186l.547-.966.358-4.294A.782.782,0,0,1,655.537-175.141Zm-5.882-21.5-.172.728c0-.052-.009-.116-.018-.195a.261.261,0,0,0-.1-.186Z" transform="translate(-559.703 198.321)" fill="url(#linear-gradient-6)"/>
      <path id="Caminho_8" data-name="Caminho 8" d="M553.719-187.624a.616.616,0,0,1-.229.1.165.165,0,0,0-.088.054l.012-.006A1.548,1.548,0,0,0,553.719-187.624Z" transform="translate(-544.903 196.536)" fill="url(#linear-gradient-7)"/>
      <path id="Caminho_9" data-name="Caminho 9" d="M554.913-187.8l-.123-.026-.134.251.12.025Z" transform="translate(-545.113 196.57)" fill="url(#linear-gradient-8)"/>
      <path id="Caminho_10" data-name="Caminho 10" d="M559.541-187.021l-.124-.025-.14.211.125.066Z" transform="translate(-545.884 196.439)" fill="url(#linear-gradient-9)"/>
      <path id="Caminho_11" data-name="Caminho 11" d="M558.193-187.207l-.065-.269-.149.094.1.186Z" transform="translate(-545.667 196.511)" fill="url(#linear-gradient-10)"/>
      <path id="Caminho_12" data-name="Caminho 12" d="M623.981-189.81l-.159.016-.007.357.158-.017Z" transform="translate(-556.654 196.901)" fill="url(#linear-gradient-11)"/>
      <path id="Caminho_13" data-name="Caminho 13" d="M620.131-192.387a.4.4,0,0,0-.147-.282l-.608-.092,1.1-1.535a.5.5,0,0,0-.177.058,1.128,1.128,0,0,1-.37.078l-.265-.247c-.187.257-.332.39-.439.4-.059-.047-.123-.1-.194-.157a.279.279,0,0,0-.188-.077c-.007.011-.018.017-.025.027a.991.991,0,0,0-.172-.053l.446-.316c-.078.035-.237.124-.475.268-.019.011-.033.021-.052.033a1.122,1.122,0,0,0-.209-.013l-.618.022-.4-.239-.378.236-.136-.182-.672.07-.13.176-1,.036.249-.2-.05-.113-.44.317-.467.017-.064-.032-.483.051-.222.008a14.521,14.521,0,0,0-3.71.364c-.173.016-.349.03-.517.054a.131.131,0,0,0-.1-.02.167.167,0,0,0-.114.052l0,0c-.052.008-.1.018-.157.028l-.135-.157-.911.1a2.858,2.858,0,0,1-.607.362,3.12,3.12,0,0,0-.568.317,3.006,3.006,0,0,0-.5.447,1.65,1.65,0,0,0-.35.746l-.072.954.13.539-.1,1.508.176.177a.771.771,0,0,0,.12-.208,2.125,2.125,0,0,1,.117-.251.1.1,0,0,1,.063.015.079.079,0,0,0,.058.014l.044.033c.041-.135.087-.206.141-.212l.168.533c.041-.135.1-.207.182-.216a2.908,2.908,0,0,0,.307.519.467.467,0,0,0,.52.221l.5-.172c.056.045.05.138-.018.276l1.94-.206.542.257-1,12.363a1.108,1.108,0,0,1-.109.327l-.152.293a.4.4,0,0,0-.015.3.4.4,0,0,1,.025.254l-.314,1.332-.012,1.579-.093.719a.446.446,0,0,0,.112.342.472.472,0,0,1,.112.344l-.143,1.474-.461,1.467,0,1.3-.107.129.258.209-.111.09.5,1.484,3.085-.329a2.288,2.288,0,0,0,.563-.157,4.38,4.38,0,0,0,.665-.349,3.809,3.809,0,0,0,.616-.478,3.6,3.6,0,0,0,.448-.521l-.036-.8a9.062,9.062,0,0,0,.1-2.827l.358-1.665-.174-.177a.688.688,0,0,0,.222-.616l1.365-16.578.79-.086a.314.314,0,0,0,.029-.14.322.322,0,0,1,.061-.184l2.213-.237.282-.424.264.249a.469.469,0,0,0-.079-.19.212.212,0,0,1-.038-.194.892.892,0,0,0,.1-.621.951.951,0,0,1,0-.492,3.112,3.112,0,0,0,.246-.342.839.839,0,0,0,.128-.33l.052-.32-.337-.2A1.551,1.551,0,0,0,620.131-192.387Zm-13.74,2.55-.159.017.041-.437.158-.016Zm.073-1.4-.059-.142.052-.753.1.287A2.764,2.764,0,0,0,606.465-191.234Zm6.033,20.567-.006.394-.142.015c-.043-.281-.073-.567-.1-.851l0-.006A.829.829,0,0,0,612.5-170.666Z" transform="translate(-553.65 197.697)" fill="url(#linear-gradient-12)"/>
      <path id="Caminho_14" data-name="Caminho 14" d="M620.452-194.495l-.18-.217-.108.13.218.175Z" transform="translate(-556.045 197.719)" fill="url(#linear-gradient-13)"/>
      <path id="Caminho_15" data-name="Caminho 15" d="M573.077-188.384l.282.047.071-.125-.364-.039Z" transform="translate(-548.185 196.682)" fill="url(#linear-gradient-14)"/>
      <path id="Caminho_16" data-name="Caminho 16" d="M559.773-180.693l-.367-.512a.36.36,0,0,0,.014-.277c-.032-.077-.065-.113-.088-.109a.722.722,0,0,0,.21-.3,2.012,2.012,0,0,1,.094-.286l-.257-1.036-1.3-1.95a.6.6,0,0,1,.112-.111.229.229,0,0,0,.068-.106l-.309.112c-.088-.1-.206-.229-.356-.4a4.387,4.387,0,0,0-.5-.478,2.6,2.6,0,0,0-.572-.352.8.8,0,0,0-.526-.062l-.718-.869a.6.6,0,0,0-.312.112l-.948-.332a.3.3,0,0,0,.029.115c.017.025-.029.042-.135.054l-1.265.134c-.132.017-.212,0-.243-.052s-.071-.045-.118.014l-.64-.011a.365.365,0,0,1,.059-.081.91.91,0,0,0-.288.184l-.325-.044a.193.193,0,0,1,.187-.119.217.217,0,0,0,.193-.079.383.383,0,0,1-.287-.087.583.583,0,0,1-.32.21,1.04,1.04,0,0,0-.326.135c-.059-.047-.071-.092-.032-.134a.583.583,0,0,0,.084-.147l-.331.311a.631.631,0,0,0-.285-.069.41.41,0,0,1-.295-.144l-1.5.16a1.48,1.48,0,0,1-.387.336,3.41,3.41,0,0,0-.432.3.626.626,0,0,0-.162-.455l-.179.216a.426.426,0,0,0-.246-.052c-.077.007-.144.014-.2.021a1.1,1.1,0,0,1-.251.282c-.124.106-.235.2-.334.292a3.776,3.776,0,0,0-.283.8c-.079.312-.142.6-.2.87a1.072,1.072,0,0,1,.215.391.7.7,0,0,1,.053.368l-.91,9.042-.539,3.211L543.206-158a.336.336,0,0,0,.086.286.454.454,0,0,0,.235.153.1.1,0,0,1-.032.08l-.036.045c-.114-.068-.162-.082-.144-.044a.334.334,0,0,0,.129.124,1.944,1.944,0,0,1,.216.155c.073.057.123.086.147.082l2.973-.673,1.71.329,2.883-.741a1.983,1.983,0,0,1,.492-.288,1.1,1.1,0,0,0,.449-.324,5.58,5.58,0,0,1,.848-.327q.426-.124.853-.287a6.048,6.048,0,0,0,.839-.406,5.072,5.072,0,0,0,.859-.643c.207-.337.457-.751.743-1.241a7.411,7.411,0,0,1,1.01-1.35l1.446-3.779.776-9.621-.093-4.01Zm-6.868,10.7.206,1.751-.077.876-.375,1.538-1.091,2.441-.475.051-1.019-.247-.147.016c-.012-1.458.035-2.915.148-4.369l.21-1.068a.212.212,0,0,1-.094-.129c0-.005-.005-.006-.006-.011.014-.134.027-.269.042-.4.021-.045.043-.093.073-.147a2.149,2.149,0,0,0,.163-.392l.09-.758a.7.7,0,0,0-.182-.111,1.854,1.854,0,0,0-.047-.324l.319-4.146c-.167-.087-.229-.178-.185-.275s-.018-.19-.186-.276a1.25,1.25,0,0,0,.107-.345.626.626,0,0,1,.184-.357l.371-4.176-.136-.144-.111.09.075-.915c-.013-.129-.031-.192-.056-.19a.208.208,0,0,1-.128-.066l.179-.216-.033-.35.561.018.482-.407.482.462a.3.3,0,0,1,.276-.05,1.543,1.543,0,0,1,.291.107.5.5,0,0,1-.208.142.384.384,0,0,0-.2.179l1.291,1.438c.009.078-.061.178-.21.3a.562.562,0,0,1,.132.144c.032.049.1.068.206.056Z" transform="translate(-543.201 196.539)" fill="url(#linear-gradient-15)"/>
      <path id="Caminho_17" data-name="Caminho 17" d="M591.931-163.077l.127.064.137-.251-.123-.026Z" transform="translate(-551.333 192.475)" fill="url(#linear-gradient-16)"/>
      <path id="Caminho_18" data-name="Caminho 18" d="M589.651-178.343c-.047-.045-.09-.09-.147-.136l-.032.024a2.1,2.1,0,0,0-1.051-.162c-1.044.052-2.1.222-3.146.374a.5.5,0,0,0-.142-.005l-2.572.275-.447,5.447,1.47-.157.068.032.01.011a50.479,50.479,0,0,1-.383,5.194,1.226,1.226,0,0,0,0,.155l-1.035.821-1.226.13a.572.572,0,0,1-.493-.143,1.909,1.909,0,0,1-.322-.458c-.1-.187-.189-.374-.271-.563a2.257,2.257,0,0,0-.307-.5l.148-.529.336-2.4,1.084-11.9a.6.6,0,0,0-.031-.312.263.263,0,0,1,.02-.238,1.411,1.411,0,0,1,.17-.313.267.267,0,0,0,.056-.262l.213-.26a1.011,1.011,0,0,1,.3-.229,2.793,2.793,0,0,0,.542-.2,3.2,3.2,0,0,1,.5-.19c.051-.033.121-.079.209-.141a.571.571,0,0,1,.287-.11l.8-.007a2.818,2.818,0,0,1,.427.7,2.535,2.535,0,0,0-.046.577c0,.2.015.386.031.568a.125.125,0,0,0,.126.064c.052,0,.071.058.06.19l-.052.755a.349.349,0,0,0,.067.288.637.637,0,0,1,.142.241.369.369,0,0,1-.129.113.094.094,0,0,0-.049.1l.8.466,3.953-.422.557-.887-.17-.478c.04-.132.079-.267.113-.407.015-.033.033-.07.045-.1l-.019-.015c.552-2.351.249-5.46-1.877-6.879a5.936,5.936,0,0,0-4.608-.551l-.3-.025-2.362.8-.354.038-1.265.569-.56-.017c-.264.342-.555.694-.883,1.058s-.632.692-.926.986c-.169.465-.347.922-.528,1.375s-.36.926-.528,1.416l-.333,1.139,0,1.735-.368,2.48-.691,8.429-.4,2.564.018,1.93-.068.954c-.014.134.009.182.074.15s.087,0,.071.11a1.428,1.428,0,0,0,.157.632c.117.265.244.534.377.807a7.856,7.856,0,0,0,.386.728,2.389,2.389,0,0,0,.232.349,3.858,3.858,0,0,0,.532.555,1.608,1.608,0,0,0,.592.35,4.854,4.854,0,0,0,.707.536,2.3,2.3,0,0,0,.894.358,4.306,4.306,0,0,0,.608.33,1.158,1.158,0,0,0,.513.141l1.226-.13.178-.217.572.137,1.5-.162a2.488,2.488,0,0,0,.557-.236l.914-.473q.476-.249.851-.485l.455-.286a13.161,13.161,0,0,0,1.354-1.326q.616-.7,1.116-1.3.161-.41.342-.825t.351-.746a.335.335,0,0,1-.074-.347l.179-.214a.1.1,0,0,0-.062-.034c-.012,0-.035-.008-.062-.032a.124.124,0,0,1-.085-.032l-.061.165-.039.044-.094-.147.557-.454.131-1.755a.989.989,0,0,0,.345-.738c.009-.583.04-1.165.08-1.745l.078-.52c-.013-.029-.021-.064-.032-.1q.093-1.069.243-2.134c.139-.982.69-2.419.321-3.389A1.291,1.291,0,0,0,589.651-178.343Z" transform="translate(-548.354 197.097)" fill="url(#linear-gradient-17)"/>
      <path id="Caminho_19" data-name="Caminho 19" d="M571.777-185.565l.039-2.565-.161.2a1.093,1.093,0,0,1-.185.162,1.054,1.054,0,0,0-.237-.547c0-.021,0-.042,0-.063l.217-.221a.553.553,0,0,0-.188-.1c-.067-.018-.09-.054-.07-.109l.382-.2a.693.693,0,0,0-.474-.382l-.377.237-1.465.157-.088-.108-1.185.559-1.423.153-.534.292-.576,7.077.151.771a1.026,1.026,0,0,0-.2.417.312.312,0,0,0,.194-.061l.022-.027-.017.2a.251.251,0,0,0-.028.011.179.179,0,0,1-.079.028.31.31,0,0,1-.115.051.476.476,0,0,0,.192.258l-.05.58a.417.417,0,0,0-.041.037c-.058.072-.111.139-.157.195l-.92,9.831.129,1.4-.2,2.294a1.128,1.128,0,0,0,.007.257l-.411,5.09c.055-.113.1-.22.137-.322a1.069,1.069,0,0,0,.438.538.706.706,0,0,0-.22.18c-.126-.224-.2-.3-.22-.213a.85.85,0,0,1-.219.653l1.679-.415c.026,0,.037-.03.032-.082,0-.005,0-.008,0-.012a.841.841,0,0,0,.141-.08l.008,0,.238-.026a.371.371,0,0,0,.458.227.793.793,0,0,1,.522.023l2.923-.786.315-3.895-.189-3.725a.64.64,0,0,0,.2-.434c.011-.172.023-.311.04-.419l.312-3.935c.015-.106.042-.123.074-.047s.059.048.073-.087l.082-1.11a1.14,1.14,0,0,0,.161-.52c.147-2.848.456-5.769.582-8.67l.081-.084a.161.161,0,0,1-.077-.007q.027-.622.041-1.244Zm-.135-1.444-.043.833a.28.28,0,0,0-.051.038q-.011-.5-.036-1A.337.337,0,0,1,571.642-187.009Z" transform="translate(-546.646 196.831)" fill="url(#linear-gradient-18)"/>
    </g>
    <path id="Caminho_20" data-name="Caminho 20" d="M494.017-266.3l-2.939.812-9.015,1.27-1,.091c-.3.027-.457-.036-.472-.186a.564.564,0,0,0-.217-.392l-4.527.41c-.3.027-.455.01-.462-.05s-.067-.085-.189-.074l-4.6.6-2.947-.281-2.084.187-2.045,6.667-.855,22.9-1.056,7.489-.628,3.161-.507,5.523.484,4.339-1.388,6.88.053,5.655-.282,3.951,1.712,1.763a2.416,2.416,0,0,0,.708.109.579.579,0,0,0,.775.382c2.736-.959,5.459-.816,8.27-1.266q1.051-.169,2.1-.361l.207.229a3.411,3.411,0,0,1,1.9-.172l1.844-.8a1.18,1.18,0,0,0,1.143.536l1.268-.115.331-.394.395.329,3.473-.953,3.137.357.724-.065.394-.472a3.888,3.888,0,0,0,1.241-.258.681.681,0,0,0,.421-.453,1.551,1.551,0,0,1,.151.345l1.155-3.391.537-6.166a1.361,1.361,0,0,0-.216-.892,1.981,1.981,0,0,1-.308-.886,6.978,6.978,0,0,0-1.847-1.751,3.71,3.71,0,0,0-1.75-.663,1.768,1.768,0,0,0-.9.128.483.483,0,0,1-.546,0l-4.126,1.834a.328.328,0,0,0-.452.04.893.893,0,0,1-.618.238l-7.425.671,1.2-14.989,5.072-.457,5.506.324,3.637-1.15-.04-.453a5.777,5.777,0,0,1,.457-.5,1.6,1.6,0,0,1,.655-.333l.9-3.184.182-2.025.5-1.505-1.061-3.648q-.566-.221-1.177-.395a4.746,4.746,0,0,1-.9-.33,3.256,3.256,0,0,1-1.086.1,9.635,9.635,0,0,0-1.365.032,2.16,2.16,0,0,1,0,.334.847.847,0,0,0-.107-.01c-2.737.018-5.729-.168-8.444.447l-1.95.177a1.87,1.87,0,0,0,.469-1.365,8.948,8.948,0,0,0-.229-1.031c.276-.328.406-.552.4-.673l.392-9.8c-.048.127-.087.221-.111.284a.576.576,0,0,1-.05.091c.05-.268.092-.539.13-.815a8.1,8.1,0,0,0,.122-1.659l8.035.087,5.689-.7,2.748-.887a.179.179,0,0,0-.057-.132.183.183,0,0,1-.055-.131l-.1-.082a3.7,3.7,0,0,1,.475-.819,4.5,4.5,0,0,1,1.1-.966l1.37-7.062Z" transform="translate(-7.616 -3.157)" fill="url(#linear-gradient-19)"/>
    <path id="Caminho_21" data-name="Caminho 21" d="M653.987-279.375l.322-3.536a4.689,4.689,0,0,0,.009-.923,1.649,1.649,0,0,0-.542-.965l-4.511-.418-4.765.8c-.293.149-.655.337-1.092.561a4.468,4.468,0,0,0-1.075.744q-1.952,3.684-3.561,7.151t-3.121,6.974q-1.512,3.505-2.913,7.231t-2.944,7.925c-.111.132-.164.2-.164.2l-.082.1-.3-.248.215-1.681-.655-4.276-5.85-16.442.231-2.511a1.82,1.82,0,0,0-.073-.824,8.9,8.9,0,0,0-.127-.911,3.373,3.373,0,0,0-.308-.894,12.9,12.9,0,0,0-1.155-1.186c-.431-.392-.737-.579-.917-.562l-.635.057-2.693,1.536-1.308-.341-2.444.223-3.359,1.228-1.1,5.082.308,6.522-.937,10.971-.9,6.263.395.333a4.367,4.367,0,0,0-.328.906,1.413,1.413,0,0,1-.438.731l-.3,8.884-1.239,7.585a1.379,1.379,0,0,1,.277,1.081l.08,3.959-.546,7.155a2.479,2.479,0,0,1-.327.951q-.277.486-.507.969a6.486,6.486,0,0,0,.356,3.473,12.051,12.051,0,0,1,.792,3.249c0,.061.073.146.2.258a.271.271,0,0,1,.109.173.523.523,0,0,0,.344-.216.881.881,0,0,1,.617-.24l8.6-.785,1.843-.815.479-14.066.851-5.8-.053-5.715a.612.612,0,0,1,.437-.224l4.915,13.113c.228-.144.382-.158.452-.042a1.382,1.382,0,0,0,.3.342l6.247-.571.3.251,3.719-8.457a1.227,1.227,0,0,1-.149-.633l.3-.991c.022-.043.046-.085.068-.128a3.289,3.289,0,0,0,.522-1.793l.1-.314a1.7,1.7,0,0,1,.031.875c-.064.282-.117.548-.155.8l2.042-4.706c.063-.006.093.007.1.037s.032.042.094.037a.081.081,0,0,0,.1.083l-1.917,23.515a8.394,8.394,0,0,1,1.23,2.009,2.387,2.387,0,0,0,1.708,1.228l1.843-.815,6.43-.587a1.966,1.966,0,0,0,.916-.452,4.845,4.845,0,0,0,.8-.718c.1-.256.184-.494.256-.716a1.38,1.38,0,0,0,.091-.517l-.246-1.73a6.068,6.068,0,0,1,.36-.585.818.818,0,0,0,.183-.479l1.044-7.751c-.133-.112-.24-.117-.322-.018s-.1.025-.067-.225l2.033-25.278.62-2.27,1.641-19.43Z" transform="translate(-31.843)" fill="url(#linear-gradient-20)"/>
    <path id="Caminho_22" data-name="Caminho 22" d="M537.695-259.874l.006-.012-.013-.011c-.193-.642-.422-1.274-.667-1.9a.953.953,0,0,0,.023-.317.878.878,0,0,0-.232-.2c-.069-.17-.139-.34-.209-.508a.281.281,0,0,1,.292.087,15.939,15.939,0,0,1-.822-1.524,11.1,11.1,0,0,0-.866-1.519,4.45,4.45,0,0,0-1.107-1.132,2.389,2.389,0,0,0-1.63-.356,2.031,2.031,0,0,1-.846-1.292l-.851.077a.689.689,0,0,0-.454-.716,23.284,23.284,0,0,0-4.633-1.194l.086-.287-2.714.244q-.464-.041-.926-.078a.677.677,0,0,0-.109,0l-.283-.352-8.659,1.368c-1.9-.139-6.872-.628-6.513,1.81l-.223.221.032.357a5.99,5.99,0,0,0-.872.842c-.018.022-.031.045-.047.067l-.366.032-.5.5-1.4,16.832-1.365,9.16.231,2.536-.126,1.654c.133.11.226.132.28.067s.064.024.024.272l-.364,5.053a1.013,1.013,0,0,0-.471.864l-1.044,9.678-.095,9.048c-.109.131-.212.187-.3.164s-.157.12-.191.427l-.5,5.613a3.02,3.02,0,0,1-.16.746,1.185,1.185,0,0,0-.087.556c.157.412.318.824.476,1.235a1.953,1.953,0,0,1,.107,1.177l3.137.356,1.688-.517,2.311.34,5.739-2.162.34-3.318a2.41,2.41,0,0,1-.156-1.217,3.276,3.276,0,0,0-.066-1.226l-.2-2.174,1.81-9.292.631-9.185,2.026-.729q.54,1.9,1.161,3.776c-.077-.217-.152-.412-.225-.576l.213,3.358,1.747,6.233a2.32,2.32,0,0,0-.352,1.127l4.336,13.667,2.083-.187.866-.534,8.058-.728q-.214-.346.24-.387l.93-1.819-2.234-7.558c-.009.011-.014.022-.023.033a65.925,65.925,0,0,0-1.849-7.547.249.249,0,0,1,.188,0,.826.826,0,0,0,.371.059l-2.191-8.11c-.017.019-.033.042-.049.062a28.364,28.364,0,0,0-.612-2.828l-.128-.9.149-1.384,3.03-2.829,3.742-7.093.167-1.2a3.569,3.569,0,0,0,.285-.392.6.6,0,0,0,.1-.374,1.208,1.208,0,0,1-.28-1.07l1.055-1.465c-.24.022-.364,0-.368-.058-.062.006-.065-.024-.009-.091.153-.317.275-.5.362-.534s.152-.181.192-.428l.388-4.782a.641.641,0,0,1-.2-.308,9.072,9.072,0,0,0,.221-1.6A11.265,11.265,0,0,0,537.695-259.874ZM524.357-249.5l-1.74,3.282a1.083,1.083,0,0,1-.7.276.253.253,0,0,0-.053.341.33.33,0,0,1,.035.336l-1.21.614a6.622,6.622,0,0,1-1.572.642,7.373,7.373,0,0,1-1.161.237,4.575,4.575,0,0,1-1.495-.3q-1.039-.335-.932-1.018l.406-3.782-.6-.481.775-1.257.707-6.88,4.281-.917a5.713,5.713,0,0,1,.853.274,11.87,11.87,0,0,1,1.2.549,3.453,3.453,0,0,1,1.048.822,1.419,1.419,0,0,1,.387,1.021l-.216,2.192.311,1.177Z" transform="translate(-14.237 -2.396)" fill="url(#linear-gradient-21)"/>
    <path id="Caminho_23" data-name="Caminho 23" d="M576.336-214.307a.381.381,0,0,1,.191-.347l.454-5.294a1.848,1.848,0,0,1-.81-.871q-.334-.644-.786-.6L559.9-220.048l-.487-.316,1.26-15.1a.5.5,0,0,0-.186-.091c.015-.122.03-.245.046-.367a.915.915,0,0,0,.189.005l.316-3.528-.157-.1c.009-.143.015-.287.024-.431l.084-.007-.076-.17c.119-2.118.14-4.236.108-6.359l1.637-17.04q-.2-.161.032-.137c.153.017.247-.127.281-.429l.275-3.971.5-.493.215-2.621-.3-1.02c-.019-.248-.044-.5-.082-.747a.526.526,0,0,0-.489-.485l.261-.387-3.532.315a.96.96,0,0,0-.651.371c-.191.227-.348.346-.468.356l-5.689-.3a6.01,6.01,0,0,1-.742.379,2.478,2.478,0,0,1-.756.2l-.981,2.24-.522,5.25a3.663,3.663,0,0,0-.284.384.581.581,0,0,0-.1.369.807.807,0,0,1,.517.671l-2.318,19.5.32,3.471-1.519,18.261-.52,1.3a.294.294,0,0,1,.289.153.371.371,0,0,1,.031.356l-.129,8.536-.881,3.309-.059,1.351c-.033.3-.018.465.047.489s.1.1.11.215a1.577,1.577,0,0,1,.056,1.116q-.172.6.617,1.246l6.282-1.185a1.282,1.282,0,0,0,.892-.214,1.226,1.226,0,0,1,.524-.271l3.654.035,2.956-.622.395.324a4.1,4.1,0,0,1,.56-.364,1.833,1.833,0,0,1,.492-.088.9.9,0,0,1,.651.122.752.752,0,0,0,.56.13l8.874-.788,1.581-.677.666.3a1,1,0,0,1,.6-.412l1.261-2.175.192-2.241Z" transform="translate(-21.969 -1.899)" fill="url(#linear-gradient-22)"/>
    <path id="Caminho_24" data-name="Caminho 24" d="M602.457-275.761c-.017.022-.039.043-.059.065q-.092-1.107-.291-2.209a.65.65,0,0,0-.093-.241l.264-.136a1.641,1.641,0,0,0-1.086-.916l-.866.54-3.351.306-.2-.257-2.718,1.261-3.259.3-1.219.666-1.352,16.545.22,1.156-.093.983a2.5,2.5,0,0,0-.244.638c.071-.007.132-.016.187-.026l-.041.431q-.073.079-.157.167a.878.878,0,0,0-.308.629l.356.373q-.059.632-.119,1.264l-.107.131-1.806,19.33a7.532,7.532,0,0,0-.1.97l.014-.017-.238,2.549a2.5,2.5,0,0,0-.275.379.641.641,0,0,0-.142.59c.032.137.058.273.088.41l0,0a5.1,5.1,0,0,1,.153,1.151,3.6,3.6,0,0,1-.064.813,2.584,2.584,0,0,0,.227-.359c.092.537.167,1.076.232,1.615l-1.271,15.642a2.782,2.782,0,0,0-.234.911,1.226,1.226,0,0,0,.452,1,2.117,2.117,0,0,1-.493,1.087l2.549-.6c.022,0,.042.009.065.011a23.57,23.57,0,0,0,5.318-.219.552.552,0,0,0,.414-.26l5.4-1.385.737-9.109-.414-8.727a1.477,1.477,0,0,0,.457-1.01c.025-.4.056-.727.1-.978l.693-8.731a1.51,1.51,0,0,0,.093-.362c.013-.107.025-.215.039-.322.022.008.047.044.075.11.078.177.133.111.167-.2l.4-5.373q1.255-11.342,1.8-22.745l.382-2.284.1-6.005C602.717-276.077,602.593-275.927,602.457-275.761Z" transform="translate(-28.495 -1.005)" fill="url(#linear-gradient-23)"/>
    <path id="Caminho_25" data-name="Caminho 25" d="M450.671-226.66a10.189,10.189,0,0,0-1.443-2.31,4.04,4.04,0,0,0-2.092-1.374l3.571-7.047.14-1.475c-.132-.107-.113-.231.057-.372a3.036,3.036,0,0,0,.42-.41l.77-6.655-.819-5.025-4.587-8.273a.547.547,0,0,1-.347.22l-.182.018-1.625-.856a.549.549,0,0,0-.334-.363c-1.79-.788-3.882-.644-5.8-.719l-1.487-.267-1.6.17a47.323,47.323,0,0,0-5.449.112c-.073.01-.147.023-.219.038l-5.635.6-1.061.841c-.113.022-.227.044-.34.071a3.381,3.381,0,0,0-1.161.482,2.034,2.034,0,0,0-.45.467c-.164.076-.327.156-.487.242a.635.635,0,0,0-.258.245l-.152-.1-.593.521.117.3a.7.7,0,0,0-.269.483,12.373,12.373,0,0,0-.049,2.281l-.356,3.931.566,3.226-.795,9.4-.562,1.885-1.312,17.849.272,1.979-.276,3.043-2.136,8.719-.431,5.342.4,4.429-.891,1.282-.082,1.1a3.948,3.948,0,0,1,.757.787.887.887,0,0,0,.895.315l2.989-.32,4.15.378,1.678-.637,5.458-.309,3.2-.981,1.992-.213a3.54,3.54,0,0,0,1.192-.447,9.406,9.406,0,0,1,1.1-.527,11.5,11.5,0,0,0,3.534-1.839,29,29,0,0,0,3.692-3.179,31.9,31.9,0,0,0,3.179-3.763,12.331,12.331,0,0,0,1.91-3.673,9.393,9.393,0,0,1,.683-1.533,4.691,4.691,0,0,0,.527-1.243l1.031-11.887a8.559,8.559,0,0,0-.169-2.356A11.6,11.6,0,0,0,450.671-226.66Zm-13.793,14.3-1.74,4.021a1.007,1.007,0,0,1-.7.348.357.357,0,0,0-.053.416.475.475,0,0,1,.035.407l-1.21.767a6.13,6.13,0,0,1-1.572.808,6.237,6.237,0,0,1-1.161.307,3.826,3.826,0,0,1-1.495-.342q-1.038-.39-.932-1.223l.407-4.608-.6-.576.775-1.543.706-8.383,4.28-1.187a4.792,4.792,0,0,1,.853.319,10.9,10.9,0,0,1,1.2.647,3.58,3.58,0,0,1,1.048.983,1.936,1.936,0,0,1,.387,1.237l-.216,2.67.311,1.428Zm4.8-32.433-.741.828-.606-.05-.646.868-.929.7-.541.332.691,2.166.3,1.086.094.572.277.271-.494.373.185.062.234-.036.1.148.066.022.007.083.141.2-.109.055.17.6.231.755-.3-.187.038.284-.282-.21.047-.2-2.841-1.8-.225-.8-.693.343-.314-.412a1.847,1.847,0,0,1-.481-.252c-.235-.175-.7-.575-.7-.575l-1.85,1.251-1.157.908-.387.317-.617.094-.163.591-.492.375-.526.186-.612.527-.692.342-.382.269,2.487-5.542.409-1.527-.643-.675a2.179,2.179,0,0,1-.8-.084l-.287-.654a2.721,2.721,0,0,1-.815-.469l-.514-.443-.437-.207-.508-.215.064-.142a.4.4,0,0,0-.224-.016l-.133-.195-.333-.216a3.592,3.592,0,0,1-.718-.436l2.11-.257,1.011.022.362.656,1.011-.515.808-.062.71-.054,1.095-.179.681-.15,1.062-2.907.332-1.147.662-1.545.1-.489.506-1,.455,2.523-.3.986.777-.154-.16,1.073.324.314.586,2.223,2.365-.323.611.484.261-.6,1.431-.107s1.522-.018,1.828-.041l1.126-.085Z" transform="translate(0 -3.947)" fill="url(#linear-gradient-24)"/>
  </g>
</svg>
